/* XPM */
static const char *const dirnotes[] = {
"32 32 6 1",  
"   c None",
".  c #666666",
"+  c #FFFFFF",
"@  c #848484",
"#  c #000000",
"$  c #FCE883",
"                                ",
"  ........                      ",
" .++++++++.                     ",
" .+++++++++..................   ",
" .+++++++++++++++++++++++++++.  ",
" .+++++++++++++++++++++++++++.  ",
" .++..+......++@@@@@@@@@@@@@@@@@",
" .++..++++++++#################@",
" .+++++++++++#$$$$$$$$$$$$$$$$$#",
" .++..+.....+#$$$$$$$$$$$$$$$$$#",
" .++..+++++++#$$$$$$$$$$$$$$$$$#",
" .+++++++++++#$$#############$$#",
" .++..+.....+#$$$$$$$$$$$$$$$$$#",
" .++..+++++++#$$########$$$$$$$#",
" .+++++++++++#$$$$$$$$$$$$$$$$$#",
" .++..+.....+#$$$$$$$$$$$$$$$$$#",
" .++..++++++++#######$$$####### ",
" .++++++++++++++++++#$$#++++++  ",
" .++..+............+#$#++++++.  ",
" .++..++++++++++++++##+++++++.  ",
" .++++++++++++++++++#++++++++.  ",
" .++..+............++++++++++.  ",
" .++..+++++++++++++++++++++++.  ",
" .+++++++++++++++++++++++++++.  ",
" .++..+................++++++.  ",
" .++..+++++++++++++++++++++++.  ",
" .+++++++++++++++++++++++++++.  ",
" .++..+................++++++.  ",
" .++..+++++++++++++++++++++++.  ",
" .+++++++++++++++++++++++++++.  ",
"  ...........................   ",
"                                "
};
